{"title":"Natural City 2003 English Subtitles DVDRip Xvid LKRG","uid":10717779,"size":1110687558,"categoryP":"video","categoryS":"movies","magnet":"?xt=urn:btih:05f84bc67f5cb774e53ccf4c9d41c308a834ed62&amp;dn=Natural+City+2003+English+Subtitles+DVDRip+Xvid+LKRG&amp;tr=udp%3A%2F%2Ftracker.openbittorrent.com%3A80&amp;tr=udp%3A%2F%2Fopen.demonii.com%3A1337&amp;tr=udp%3A%2F%2Ftracker.coppersurfer.tk%3A6969&amp;tr=udp%3A%2F%2Fexodus.desync.com%3A6969","seeders":9,"leechers":2,"uploader":".BONE.","files":2,"time":1407433025,"description":"PLOT\n\nIn the year 2080, the world is connected by a massive computer network. Combiners have developed a process that\nallows them to merge the souls of human and machine/cyborg, wreaking havoc in...\n\nRuntime ..........: 1h 52mn\nFile Size ........: 1.03 GB\nResolution .......: 704 x 368 &lt;a href=&quot;\nhttp://www.imdb.com/title/tt0378428/&quot; rel=&quot;nofollow&quot; target=&quot;_NEW&quot;&gt;\nhttp://www.imdb.com/title/tt0378428/&lt;/a&gt;\nGenre ............: Action,Drama,Thriller\nLanguage .........: Korean\nSubtitles ........: English\nComplete name : Natural City 2003 English Subtitles DVDRip Xvid LKRGNCity_LKRG.avi\nFormat : AVI\nFormat/Info : Audio Video Interleave\nFile size : 1.03 GiB\nDuration : 1h 52mn\nOverall bit rate : 1 313 Kbps\nWriting application : VirtualDubMod 1.5.10.2 (build 2540/release)\nWriting library : VirtualDubMod build 2540/release\nVideo\nID : 0\nFormat : MPEG-4 Visual\nFormat profile : Advanced Simple@L5\nFormat settings, BVOP : 2\nFormat settings, QPel : No\nFormat settings, GMC : No warppoints\nFormat settings, Matrix : Default (H.263)\nMuxing mode : Packed bitstream\nCodec ID : XVID\nCodec ID/Hint : XviD\nDuration : 1h 52mn\nBit rate : 855 Kbps\nWidth : 704 pixels\nHeight : 368 pixels\nDisplay aspect ratio : 2.35:1\nFrame rate : 23.976 fps\nColor space : YUV\nChroma subsampling : 4:2:0\nBit depth : 8 bits\nScan type : Progressive\nCompression mode : Lossy\nBits/(Pixel*Frame) : 0.138\nStream size : 690 MiB (65%)\nWriting library : XviD 1.2.1 (UTC 2008-12-04)\nAudio\nID : 1\nFormat : AC-3\nFormat/Info : Audio Coding 3\nMode extension : CM (complete main)\nFormat settings, Endianness : Big\nCodec ID : 2000\nDuration : 1h 52mn\nBit rate mode : Constant\nBit rate : 448 Kbps\nChannel(s) : 6 channels\nChannel positions : Front: L C R, Side: L R, LFE\nSampling rate : 48.0 KHz\nBit depth : 16 bits\nCompression mode : Lossy\nStream size : 362 MiB (34%)\nAlignment : Split accross interleaves\nInterleave, duration : 42 ms (1.00 video frame)\nInterleave, preload duration : 500 ms","torrent":{"xt":"urn:btih:05f84bc67f5cb774e53ccf4c9d41c308a834ed62","amp;dn":"Natural+City+2003+English+Subtitles+DVDRip+Xvid+LKRG","amp;tr":["udp%3A%2F%2Ftracker.openbittorrent.com%3A80","udp%3A%2F%2Fopen.demonii.com%3A1337","udp%3A%2F%2Ftracker.coppersurfer.tk%3A6969","udp%3A%2F%2Fexodus.desync.com%3A6969"],"infoHash":"05f84bc67f5cb774e53ccf4c9d41c308a834ed62","infoHashBuffer":{"type":"Buffer","data":[5,248,75,198,127,92,183,116,229,60,207,76,157,65,195,8,168,52,237,98]},"announce":[],"urlList":[]}}